# xmcd CD database file
#
# Track frame offsets:
#	150
#	20760
#	42082
#	68342
#	75840
#	88662
#	93905
#	116080
#	119685
#	142767
#	174312
#	197055
#	223750
#	242537
#	253735
#	268760
#	286217
#	306757
#
# Disc length: 4313 seconds
#
# Revision: 4
# Processed by: cddbd v1.5.1PL0 Copyright (c) Steve Scherf et al.
# Submitted via: CDex 1.50
#
DISCID=f310d712
DTITLE=Mongo and Ray - Montreaux Jazz Festival
DYEAR=1971
DGENRE=Jazz
TTITLE0=Mongo Santamaria - Disappear
TTITLE1=Mongo Santamaria - Marty's Tune
TTITLE2=Mongo Santamaria - Soleil
TTITLE3=Mongo Santamaria - Conversation in Drums
TTITLE4=Mongo Santamaria - I Wanna Know
TTITLE5=Mongo Santamaria - Watermelon Man
TTITLE6=Mongo Santamaria - Cloud-Nine
TTITLE7=Mongo Santamaria - Watermelon Man (2)
TTITLE8=Ray Bryant - Gotta Travel On
TTITLE9=Ray Bryant - Blues #3 - Willow Weep for Me
TTITLE10=Ray Bryant - Cubano Chant
TTITLE11=Ray Bryant - Rockin' Chair
TTITLE12=Ray Bryant - Afterhours
TTITLE13=Ray Bryant - Greensleeves
TTITLE14=Ray Bryant - Little Susie
TTITLE15=Ray Bryant - Until It's Time for You to Go
TTITLE16=Ray Bryant - Blues #2
TTITLE17=Ray Bryant - Liebestraum Boogie
EXTD=YEAR: 1971
EXTT0=
EXTT1=
EXTT2=
EXTT3=
EXTT4=
EXTT5=
EXTT6=
EXTT7=
EXTT8=
EXTT9=
EXTT10=
EXTT11=
EXTT12=
EXTT13=
EXTT14=
EXTT15=
EXTT16=
EXTT17=
PLAYORDER=
